<svg xmlns="http://www.w3.org/2000/svg" width="1334.479" height="1334.489" viewBox="0 0 1334.479 1334.489">
  <g id="km0" transform="translate(18404.975 10796.587)">
    <path id="Trazado_16" data-name="Trazado 16" d="M663.239,83.006c354.266-100.84,723.2,104.6,824.033,458.861s-104.6,723.2-458.861,824.033-723.2-104.6-824.033-458.861S308.979,183.841,663.239,83.006Z" transform="translate(-18583.535 -10853.764)" fill="#fefefe" stroke="#2b2a29" stroke-width="0.2" fill-rule="evenodd"/>
    <path id="Trazado_17" data-name="Trazado 17" d="M609.823,81.847C837.806,16.954,1072.439,91.614,1222.6,255L180.114,551.578C221.779,333.681,381.9,146.724,609.823,81.847ZM1377,586.087c38.867,293.365-142.129,578.612-435.2,662.035-293.129,83.433-597.271-63.806-718.675-333.758L1377,586.088Z" transform="translate(-18513.48 -10794.295)" fill="#0d3e87" fill-rule="evenodd"/>
    <path id="Trazado_18" data-name="Trazado 18" d="M279.884,498.9,214.971,270.7l-29.59,8.417-2.627-9.247L293.711,238.3l2.627,9.247-29.59,8.412,64.919,228.2,29.584-8.417L363.883,485,252.926,516.561l-2.628-9.247,29.585-8.418ZM334.49,322.65,478.5,442.4l17.752-5.053,2.627,9.247L389.4,477.739l-2.632-9.252,28.848-8.206L300.006,364.443l62.148-121.621c.958-2.272,1.674-4.209,2.164-5.749a6.971,6.971,0,0,0,.335-3.756c-.48-1.669-1.876-2.6-4.122-2.761-2.323-.206-5.574.32-9.824,1.525l-19.972,5.682-2.627-9.242,82.845-23.568,2.627,9.241-7.764,2.21a63.065,63.065,0,0,0-10.256,3.781,26.865,26.865,0,0,0-13.27,11.441c-2.092,3.194-4.493,7.14-7.14,11.889L334.491,322.65ZM529.534,427.879,493.345,300.648l-24.413,6.944-2.632-9.247,11.467-3.261c12.394-3.524,23.32-7.032,32.743-10.447a238.772,238.772,0,0,0,23.8-10.035l7.47,26.262a78.6,78.6,0,0,1,18.659-26.231,68.117,68.117,0,0,1,27.236-14.805,59.623,59.623,0,0,1,20.853-2.339,49.961,49.961,0,0,1,19.179,5.337,41.162,41.162,0,0,1,7.418,5.218,38.718,38.718,0,0,1,6.614,7.583q5.889-17.271,17.2-28.08a71.744,71.744,0,0,1,49.408-18.386,42.88,42.88,0,0,1,17.9,4.837,30.06,30.06,0,0,1,8.33,6.089,26.312,26.312,0,0,1,5.384,8.4,79.844,79.844,0,0,1,3.282,8.263c1.169,3.4,2.354,7.325,3.616,11.761l25.671,90.248,24.784-7.052,2.627,9.247L711.175,386.2l-2.627-9.247,19.6-5.574-25.67-90.248c-1.685-5.919-3.018-10.6-4.079-14.094a46.47,46.47,0,0,0-2.185-6.511c-2.106-4.6-4.956-7.583-8.521-9.1-3.606-1.437-7.866-1.427-12.858,0a31.361,31.361,0,0,0-14.167,8.294,42.5,42.5,0,0,0-9.313,15.974q-5.4,14.728,1.849,40.254l20.2,71.008,19.6-5.574,2.633,9.247-83.959,23.882-2.633-9.247,19.973-5.682-25.671-90.243c-1.576-5.548-2.9-9.968-4.049-13.306a37.9,37.9,0,0,0-2.843-6.722c-2.534-4.678-5.558-7.81-9.093-9.474-3.518-1.6-7.691-1.741-12.5-.376a30.985,30.985,0,0,0-11.194,5.852,40.122,40.122,0,0,0-8.9,10.659,43.183,43.183,0,0,0-4.353,11.168,50.457,50.457,0,0,0-1.324,12.436,43.635,43.635,0,0,0,1.221,9.911c.891,4.08,2.138,8.923,3.765,14.656l20.2,71.013,19.606-5.579,2.627,9.247-88.765,25.252-2.626-9.247,24.408-6.944ZM918.015,66.3a51.269,51.269,0,0,1,14.245-1.916A63.178,63.178,0,0,1,947.7,66.658a77.112,77.112,0,0,1,15.908,6.269,103.113,103.113,0,0,1,15.5,9.984,130.584,130.584,0,0,1,31.867,34.973q13.222,20.833,21.013,48.326,8.369,29.41,7.444,55.456a130.9,130.9,0,0,1-11,48.7c-4.817,11.163-10.637,20.215-17.54,27.112a53.564,53.564,0,0,1-23.861,14.249,55.852,55.852,0,0,1-30.25.01q-15.486-4.188-31.584-16.4a140.644,140.644,0,0,1-31.852-35.38q-13.314-20.8-21.136-48.3a184.073,184.073,0,0,1-6.635-36.688,168.723,168.723,0,0,1,.964-35.257,120.786,120.786,0,0,1,7.4-28.56,98.928,98.928,0,0,1,13.044-23.228,66.173,66.173,0,0,1,14.208-13.77A56.908,56.908,0,0,1,918.018,66.3Zm1.623,9.937a22.254,22.254,0,0,0-10.149,6.486,24.312,24.312,0,0,0-6.084,10.926,48.008,48.008,0,0,0-.68,13.78q.564,8.639,2.642,21.239c2.288,11.544,4.755,23.032,7.491,34.515,2.653,11.442,5.651,22.914,8.912,34.376,5.368,18.865,10.643,35.555,15.743,49.959a316.339,316.339,0,0,0,15.217,36.385,40.413,40.413,0,0,0,6.914,10.493,26.046,26.046,0,0,0,24.546,7.346A23.37,23.37,0,0,0,995,295.47a24.892,24.892,0,0,0,5.9-10.874,54.5,54.5,0,0,0,.711-14.125,155.379,155.379,0,0,0-2.782-21.265q-6.3-34.788-15.923-68.628c-5.316-18.679-10.6-35.164-15.846-49.6a375.046,375.046,0,0,0-15.589-37.008A41.431,41.431,0,0,0,944.684,83.7a24.474,24.474,0,0,0-16.644-8.392,24.457,24.457,0,0,0-8.4.927Z" transform="translate(-18380.121 -10498.578)" fill="#cf8d37" stroke="#af9778" stroke-width="0.076"/>
    <line id="Línea_2" data-name="Línea 2" y1="219.916" x2="2.885" transform="translate(-17430.443 -10421.932)" fill="none" stroke="#af9778" stroke-width="0.5"/>
    <path id="Trazado_19" data-name="Trazado 19" d="M289.793,176.28,209.507,79.818l5.229,83.335a48,48,0,0,0,.824,6.779,8.4,8.4,0,0,0,1.366,3.544,6.247,6.247,0,0,0,2.931,1.216,22.122,22.122,0,0,0,5.044.17l6.661-.422.267,4.271L197.16,180.89l-.263-4.271,4.265-.273a21.66,21.66,0,0,0,4.982-.793,6.2,6.2,0,0,0,2.755-1.576,8.337,8.337,0,0,0,.943-3.683,48.588,48.588,0,0,0-.056-6.826l-5.059-80.6a50.922,50.922,0,0,0-.8-6.949,8.284,8.284,0,0,0-1.4-3.539,6.2,6.2,0,0,0-2.937-1.221,21.773,21.773,0,0,0-5.038-.17l-4.27.268-.268-4.266L226.9,64.673l59.206,69.318L282.6,77.98a50.681,50.681,0,0,0-.8-6.949,8.34,8.34,0,0,0-1.4-3.544,6.2,6.2,0,0,0-2.931-1.216,21.782,21.782,0,0,0-5.038-.17l-4.44.278-.273-4.266,32.449-2.035.268,4.265-4.441.278a21.1,21.1,0,0,0-4.837.788,6.222,6.222,0,0,0-2.729,1.576,8.387,8.387,0,0,0-.912,3.683,49.823,49.823,0,0,0,.041,7l6.166,98.362-3.925.247Z" transform="translate(-18013.355 -10716.2)" fill="#fefefe"/>
    <path id="Trazado_20" data-name="Trazado 20" d="M231.145,176.313,202.812,74.624,189.624,78.3,188.44,74.18l49.453-13.8,1.185,4.121-13.187,3.678,28.332,101.69,13.189-3.678,1.132,4.121-49.4,13.8-1.185-4.121Z" transform="translate(-18092.869 -10700.702)" fill="#fefefe"/>
    <path id="Trazado_21" data-name="Trazado 21" d="M200.082,108.351l-12.132,6.341-1.978-3.791,47.012-24.567,1.979,3.792L221.316,97.26l33.994,65.058c1.665,3.189,3.168,5.878,4.466,8.057,1.293,2.226,2.371,3.915,3.194,5.126a23.158,23.158,0,0,0,6.161,5.821,18.6,18.6,0,0,0,7.531,2.658,19.98,19.98,0,0,0,7.511-.288,31.119,31.119,0,0,0,7.974-2.973,35.92,35.92,0,0,0,11.272-8.659,20.273,20.273,0,0,0,4.605-10.834,22.655,22.655,0,0,0,.036-4.976,28.132,28.132,0,0,0-1.062-5.1c-.448-1.411-1.154-3.2-2.112-5.4-.968-2.163-2.2-4.708-3.7-7.588L273.052,84.32a50.153,50.153,0,0,0-3.565-6.017,8.294,8.294,0,0,0-2.715-2.673,6.192,6.192,0,0,0-3.173.082,21.745,21.745,0,0,0-4.673,1.9l-3.946,2.061L253,75.877l28.812-15.058L283.8,64.61l-3.791,1.983a21.567,21.567,0,0,0-4.225,2.756A6.132,6.132,0,0,0,273.9,71.9a8.3,8.3,0,0,0,.67,3.74,49.1,49.1,0,0,0,2.879,6.377l28.21,53.987q3.091,5.911,4.864,10.107a36.839,36.839,0,0,1,2.251,6.836,26.072,26.072,0,0,1-.18,10.679,28.832,28.832,0,0,1-4.5,9.917,46.263,46.263,0,0,1-7.712,8.211,59.543,59.543,0,0,1-10.468,6.882A65.863,65.863,0,0,1,267,195.787a35.91,35.91,0,0,1-11.972-.438,22.349,22.349,0,0,1-9.237-4.312,28.79,28.79,0,0,1-6.573-8.15q-.9-1.707-2.215-4.054t-2.925-5.42l-34-65.063Z" transform="translate(-18217.586 -10678.773)" fill="#fefefe"/>
    <path id="Trazado_22" data-name="Trazado 22" d="M262.073,144.263l-35.087-7.722-10.808,17.242c-.691,1.159-1.247,2.092-1.633,2.792a6.063,6.063,0,0,0-.7,1.427,2.058,2.058,0,0,0,.985,2.174,11.393,11.393,0,0,0,4.147,1.581l8.856,1.952-.918,4.173-34.591-7.609.917-4.178,5.852,1.288c1.334.294,2.427.5,3.313.613a14.861,14.861,0,0,0,1.943.191,8.513,8.513,0,0,0,2.957-.84,7.4,7.4,0,0,0,2.4-2.009,18,18,0,0,1,1.01-1.674c.494-.8,1.169-1.875,2-3.271l56.6-90.032,5.347,1.174L289.167,177.2l11.7,2.576-.917,4.178L250.148,173l.917-4.178,14.373,3.163-3.364-27.72Zm-.747-4.549-6.3-47.811-25.618,40.789Z" transform="translate(-17896.463 -10701.92)" fill="#fefefe"/>
    <path id="Trazado_23" data-name="Trazado 23" d="M226.936,62.344l21.394,20.74-3.219,3.065q-11.971-7.92-22.053-7.907-10.107,0-18.371,7.882a28.446,28.446,0,0,0-7.624,11.349,23.5,23.5,0,0,0-.474,12.9,29.7,29.7,0,0,0,3,8.041,68.692,68.692,0,0,0,6.012,9.124c1.761,2.1,4.43,5.157,8.067,9.139q5.385,5.973,13.615,14.635c4.486,4.708,8.407,8.577,11.761,11.647a73.567,73.567,0,0,0,8.366,6.759q8.933,5.672,16.835,5.239,7.874-.41,14.672-6.882a28.765,28.765,0,0,0,7.567-11.612,34.547,34.547,0,0,0,1.551-14.548,50.193,50.193,0,0,0-1.973-9.108,57.382,57.382,0,0,0-3.987-9.314l3.343-3.189,20.951,24-3.343,3.183-9.01-2.761c-.109,1.87-.268,3.56-.469,5.09-.216,1.509-.453,2.875-.726,4.08a34.09,34.09,0,0,1-3.854,9.1,39.667,39.667,0,0,1-6.743,8.3,53.931,53.931,0,0,1-15.017,10.241,54.285,54.285,0,0,1-30.017,4.245,50.543,50.543,0,0,1-11.88-3.3,57.544,57.544,0,0,1-11.848-6.439,69.013,69.013,0,0,1-10.524-9.118q-18.762-19.7-18.488-45.477a57.277,57.277,0,0,1,4.224-20.838,49.441,49.441,0,0,1,11.586-16.655,41.974,41.974,0,0,1,12.266-8.294,34.6,34.6,0,0,1,13.79-2.808l-2.73-7.33,3.349-3.184Z" transform="translate(-18294.461 -10601.75)" fill="#fefefe"/>
    <path id="Trazado_24" data-name="Trazado 24" d="M268.57,304.2l-10.056-9.288,2.884-3.122,30.914,28.57-32.7,65.934,63.512-37.462,30.363,28.071-2.88,3.116-10.056-9.288-71.636,77.509,10.056,9.293-2.89,3.122-38.955-36,2.884-3.122L251.3,431.97l70.786-76.592-97.611,57.588-2.832-2.612,50.669-102.684-63.234,68.421c-3.874,4.188-5.856,7.094-6,8.716-.015,1.731,1.448,3.936,4.4,6.666l3.246,3-2.885,3.122-23.857-22.048,2.885-3.122,3.246,3c2.993,2.766,5.306,4.049,7,3.864,1.6-.263,4.343-2.473,8.211-6.661L268.57,304.2ZM353.352,465l-31.506-17.283-15.2,13.487a22.036,22.036,0,0,0-3.426,3.452c-.814,1.478.468,3.122,3.842,4.976l8,4.384-2.045,3.73-31.006-17,2.045-3.73,5.2,2.859a21.723,21.723,0,0,0,4.9,2.2,6.925,6.925,0,0,0,5.831-1.262c.551-.412,1.994-1.669,4.368-3.812L383.994,386.6l4.75,2.607-18.6,115.022,10.556,5.79-2.045,3.73L333.9,489.2l2.05-3.725,12.9,7.073Zm.521-4.564,7.541-47.615-36.127,31.939Zm43.942,52.493,32.17-100.526-13.038-4.173,1.3-4.049,48.862,15.639-1.293,4.044-12.987-4.158L420.662,520.24l13.147,4.209a44.967,44.967,0,0,0,9.675,2.138,25.165,25.165,0,0,0,8.036-.783q14.936-4.165,24.644-21.069l4.374,1.4-14.131,33.206-82.918-26.535,1.293-4.049Zm94.9,26.257L505.1,434.371l-13.6-1.607.5-4.224,50.948,6.027-.495,4.224-13.538-1.6L516.531,542.006l13.707,1.618a44.913,44.913,0,0,0,9.9.257,25.239,25.239,0,0,0,7.738-2.3q13.878-6.931,20.173-25.381l4.559.536-7.531,35.293L478.617,541.8l.5-4.219,13.6,1.607ZM625.252,431.28a51.193,51.193,0,0,1,38.137,11.446,59.637,59.637,0,0,1,15.259,18.9,64.906,64.906,0,0,1,7.186,24.253,63.284,63.284,0,0,1-6.254,34.144,52.573,52.573,0,0,1-44.1,30.574q-22.284,2.048-38.79-11.38a60.187,60.187,0,0,1-15.346-18.9,64.574,64.574,0,0,1-7.171-24.083,63.389,63.389,0,0,1,6.238-34.314,53.992,53.992,0,0,1,18.051-21.42,55.657,55.657,0,0,1,26.787-9.226Zm-.747,4.682q-15.546,1.43-20.744,15.083-4.1,11.027-1.226,42.412,1.855,20.238,4.646,30.62c2.627,9.551,6.768,16.016,12.461,19.328,3.967,2.328,9.082,3.2,15.419,2.617,5.481-.505,9.957-1.973,13.369-4.4a22.886,22.886,0,0,0,7.809-10.71q4.1-10.949,1.195-42.752-3.091-33.62-10.468-43.432a20.367,20.367,0,0,0-9.927-7.655,29.753,29.753,0,0,0-12.534-1.107Zm88.76,94.874-36.54-99.016-12.848,4.739-1.468-3.993,47.115-17.386q16.528-6.1,23.223-6.769,12.386-1.383,20.163,4.476a24.962,24.962,0,0,1,8.247,11.483,24.29,24.29,0,0,1-.076,17.907A26.431,26.431,0,0,1,749.465,456.1a113.714,113.714,0,0,1-10.839,5.157,41.572,41.572,0,0,1,23.326,1.912q12.9,5.046,18.267,19.612c.232.618.587,1.669,1.051,3.08q.788,2.4,1.309,3.8c1.638,4.44,3.338,7.31,5.074,8.644a7.465,7.465,0,0,0,7.413.819,23.349,23.349,0,0,0,7.023-4.626l1.591,4.307a55.54,55.54,0,0,1-16.288,9.9c-9.365,3.462-17.123,2.122-23.291-3.956a38.952,38.952,0,0,1-7.217-10.164c-.814-1.555-2.142-4.5-4.055-8.84q-6.83-15.817-13.713-18.8a12.667,12.667,0,0,0-8.515-.412c-1.077.273-2.73.824-4.925,1.633l-8.778,3.24,18.87,51.128,12.786-4.718,1.473,3.982-48.136,17.762-1.469-3.987,12.843-4.74Zm2.158-63.419L727.2,463.08c5.269-1.952,8.886-3.921,10.813-5.878q4.552-4.6,3.534-12.158a59.787,59.787,0,0,0-3.5-12.874q-4.551-12.325-10.679-14.939a12.357,12.357,0,0,0-7.387-.742,51.438,51.438,0,0,0-8.907,2.648l-11.853,4.379,16.2,43.9Zm157.393-3.575.6,1,.726,1.2q8.454,13.925,15.779,16.809,9.235,3.756,23.172-4.688c1.561-.948,3.744-2.411,6.542-4.337l2.56,4.214c-3.06,2.158-5.667,3.91-7.861,5.239q-16.165,9.814-26.072,12.121-17.13,3.848-25.423-4.018c-2.292-2.179-5.471-6.486-9.494-12.889l-1.37-2.1a52.378,52.378,0,0,1-20.833,2.57,56.4,56.4,0,0,1-25.721-8.742,63.971,63.971,0,0,1-21.162-21.353,63.229,63.229,0,0,1-9.344-33.423,52.526,52.526,0,0,1,26.231-46.812q19.124-11.614,39.857-6.779a60.18,60.18,0,0,1,22.069,10.256,64.739,64.739,0,0,1,17.046,18.576,62.77,62.77,0,0,1,9.215,38.379,51.564,51.564,0,0,1-16.52,34.778Zm-69.652-91.068q-13.345,8.105-12.04,22.656,1.151,11.707,17.525,38.7,10.541,17.379,17.613,25.505c6.533,7.413,13.094,11.405,19.659,11.889,4.585.355,9.572-1.1,15.006-4.4,4.708-2.854,8.082-6.145,10.087-9.824a22.922,22.922,0,0,0,2.323-13.054q-1.159-11.707-17.706-39-17.5-28.854-28.441-34.448a20.364,20.364,0,0,0-12.275-2.519,29.683,29.683,0,0,0-11.751,4.492Zm45.287-27.957-9.489,9.912-3.071-2.937,36.679-38.321,3.07,2.936-10.607,11.086,52.948,50.68a125.246,125.246,0,0,0,11.555,10.153c4.981,3.5,10.153,4.739,15.594,3.668,4.765-.886,9.325-3.591,13.641-8.1q11.3-11.8,8.8-23.465a23.7,23.7,0,0,0-4.214-9.252,87.18,87.18,0,0,0-9.694-10.417L909.722,298.7c-4.121-3.946-6.986-5.981-8.607-6.146-1.7-.083-3.941,1.36-6.759,4.3l-3.059,3.194-3.071-2.941,22.481-23.486,3.07,2.941-3.054,3.194c-2.782,2.9-4.106,5.188-3.982,6.923q.347,2.411,6.512,8.325l44.008,42.124q9.644,9.227,12.168,13.852a26.711,26.711,0,0,1,2.076,21.054c-2.071,6.9-6.181,13.59-12.394,20.076a64.5,64.5,0,0,1-19.416,14.145q-12.008,5.61-21.6,2.226a28.828,28.828,0,0,1-8.737-5.595q-2.828-2.48-7.964-7.392l-52.946-50.681Zm158.041-18.767-88.775-57.088-7.4,11.514-3.575-2.3,27.75-43.149,3.575,2.3-7.372,11.467,88.771,57.089,7.376-11.467,3.575,2.3-27.751,43.154-3.575-2.3,7.4-11.514Zm72.219-130.317L957.2,227.039l77.529,30.924c5.3,2.112,8.717,2.926,10.282,2.472,1.608-.557,3.137-2.709,4.646-6.5l2.478-6.2,3.946,1.577-12.874,32.263L1039.267,280l1.637-4.106c1.51-3.786,1.881-6.4,1.1-7.908-.824-1.406-3.869-3.168-9.165-5.285L957.8,232.773c-5.3-2.112-8.721-2.926-10.282-2.472-1.608.557-3.138,2.7-4.652,6.5l-1.638,4.106-3.946-1.576,13.7-34.355,87.878-23.867-52.158-20.8q-7.952-3.168-10.282-2.478c-1.628.608-3.157,2.761-4.646,6.5l-1.669,4.188-3.946-1.576,12.043-30.192,3.946,1.571-1.638,4.106q-2.242,5.6-1.082,7.861c.825,1.4,3.869,3.168,9.165,5.28l91.577,36.524-1.462,3.652Zm-10.638-84.545-6.7,35.3,17.52,10.292a21.76,21.76,0,0,0,4.353,2.184c1.648.32,2.818-1.411,3.539-5.193l1.7-8.958,4.173.788-6.594,34.747-4.173-.794,1.1-5.831a21.359,21.359,0,0,0,.583-5.347,6.93,6.93,0,0,0-2.994-5.151c-.571-.4-2.214-1.381-4.981-2.978l-91.562-53.982,1.014-5.322,115.141-17.86,2.246-11.828,4.172.8-9.514,50.154-4.178-.8,2.741-14.455Zm-4.5.917-47.619,7.536,41.537,24.485,6.083-32.022Z" transform="translate(-18317.498 -10151.377)" fill="#fefefe"/>
  </g>
</svg>
