<svg xmlns="http://www.w3.org/2000/svg" width="88.294" height="66.236" viewBox="0 0 88.294 66.236">
  <path id="path0" d="M77.8,26.73c-.645,1.051-.851,2.515-1.161,8.277-.469,8.7-.578,10.409-.787,12.349C75.5,50.629,75.7,51.1,77.9,52.22c1.706.869,2.02.778,5.854-1.7,3.1-2.006,4.239-2.718,6.472-4.044,9.223-5.478,10.975-6.634,11.422-7.539.743-1.5,1.715-1.911,2.506-1.05.968,1.054.546,2.269-.9,2.585-1.2.263-2.364.914-4.51,2.527-1.266.952-3.1,2.3-4.072,2.993s-2.687,1.963-3.81,2.818-3.344,2.473-4.939,3.6c-4.136,2.912-6.188,5-5.556,5.642a7.017,7.017,0,0,0,1.847.971,10.256,10.256,0,0,0,2.846.814c1.6-.049,2.326,1.243,1.145,2.034-.454.3-1.588.068-1.588-.331,0-.243-3.793-.968-5.061-.968-.18,0-.835,1.179-1.785,3.208-2.1,4.479-11.05,14.516-12.586,16.8-4.15,6.165-3.135,5.9-25.975,6.8a62.8,62.8,0,0,0-17,2.827c-.247.08-.211.023.1-.165a1.058,1.058,0,0,0,.529-.99c.125-1.9,4.633-6.751,8.176-8.806,1.153-.669,1.1-.721-.923-.925-10.269-1.031-16.569-8.724-12.422-15.169a26.707,26.707,0,0,1,4.564-4.785c.973-.782,1.209-1.079,1.209-1.518a3.447,3.447,0,0,1,.76-1.581,3.862,3.862,0,0,0,.76-1.529c0-1.432,2.552-3.652,6.365-5.538,1.986-.982,2.866-1.165,4.18-.87a33.336,33.336,0,0,0,3.7.358c2.953.155,3.589.35,5.13,1.575.567.451.917.549,2.375.663a24.346,24.346,0,0,1,5.536.8c6.875,1.784,11.47,7.751,10.009,12.995-.194.7,1.847-.664,3.462-2.307a34.143,34.143,0,0,0,6.5-10.787c1.659-4.867,3.751-19.024,3.623-24.511-.04-1.685.012-2.156.28-2.575a1.185,1.185,0,0,1,1.923-.081" transform="translate(-16.381 -24.003)" fill="#0d3e87" fill-rule="evenodd"/>
</svg>
