<svg xmlns="http://www.w3.org/2000/svg" width="4755.717" height="733.65" viewBox="0 0 4755.717 733.65">
  <g id="logotype" transform="translate(22865.594 9244.582)">
    <path id="Trazado_25" data-name="Trazado 25" d="M264.314,583.942l-52.179,75.33c1.566,1.359,2.962,2.57,4,3.477a14.352,14.352,0,0,1,2.262,2.874,6.142,6.142,0,0,0,.52,1.968,9.978,9.978,0,0,1,.52,3.478,24.581,24.581,0,0,1-1.736,8.319,66.4,66.4,0,0,1-5.569,11.652,169.109,169.109,0,0,1-9.216,15.125c-4.173,5.9-9.041,13.008-14.785,21.178-8.345,11.344-15.65,20.725-22.084,28.138-6.61,7.413-12.348,13.157-17.567,17.242A45.369,45.369,0,0,1,133.7,781.65a42.486,42.486,0,0,1-15.48,2.87q-12.518,0-18.782-8.165a22.358,22.358,0,0,1-5.564-9.679,41.546,41.546,0,0,1-1.741-13.013c0-6.805,2.437-16.49,7.13-29.194a435.632,435.632,0,0,1,21.044-46.137c9.391-18.154,20.173-36.607,32.176-55.363s25.217-38.12,39.826-58.088a211.409,211.409,0,0,1-20.523-14.975,101.934,101.934,0,0,1-12.869-12.255,46.948,46.948,0,0,1-6.96-12.4,36.275,36.275,0,0,1-2.432-13.008c0-10.89,3.477-21.327,10.262-31.161,6.779-9.679,16.866-18.756,30.434-26.926a220.772,220.772,0,0,1,47.3-20.874c17.917-5.749,38.265-9.984,61.22-12.708,10.957-14.522,23.13-29.647,36.694-45.528,13.394-15.732,28-32.068,43.653-48.862,15.13-16.788,31.305-34.035,48.346-51.581,16.871-17.7,34.613-35.55,52.869-53.7a1345.5,1345.5,0,0,0-163.476,18.3,1503.7,1503.7,0,0,0-164.177,37.966c-9.911,3.178-17.912,5.445-24,6.96-6.089,1.36-9.917,2.118-11.483,2.118a3.773,3.773,0,0,1-2.437-.758A5.426,5.426,0,0,1,113,283.52a14.921,14.921,0,0,0-.52-3.477,25.025,25.025,0,0,1-.52-5.6c0-1.814,1.911-6.048,5.564-12.858,3.653-6.651,9.041-15.727,16.35-27.076s15.3-22.991,24.171-34.788c8.7-11.951,18.087-24.2,28-36.91A97.927,97.927,0,0,1,198.4,148.289,93.5,93.5,0,0,1,209,139.212a200.237,200.237,0,0,1,28.179-10.89q31.3-9.536,66.263-17.093,34.95-7.488,72.517-12.858c25.567-3.632,50.087-6.357,73.913-8.17,23.655-1.813,46.61-2.72,69.045-2.72q75.132,0,132.872,13.008,57.907,13.16,97.738,39.631c27.128,17.247,47.306,38.574,60.52,63.682q19.827,37.895,19.828,86.983a267.948,267.948,0,0,1-8,66.86,223.215,223.215,0,0,1-24.346,59.294,236.089,236.089,0,0,1-40.7,51.133,305.914,305.914,0,0,1-56.352,42.355,521.343,521.343,0,0,1-72.692,35.241,623.889,623.889,0,0,1-82.784,26.473,659.574,659.574,0,0,1-88.868,17.093,726.643,726.643,0,0,1-90.609,5.6,462.227,462.227,0,0,1-50.088-2.726c-8.351-.907-16.7-2.117-25.222-3.477-8.345-1.36-17.041-2.875-25.907-4.688Zm84.52-108.918c8.871,1.365,17.391,2.421,25.737,3.328,8.175.912,16,1.664,23.3,2.122s14.435.907,21.219,1.211c6.779.448,13.214.6,19.477.6a466.825,466.825,0,0,0,60.174-3.936,482.167,482.167,0,0,0,57.737-11.493,442.141,442.141,0,0,0,54.781-19.21,336.418,336.418,0,0,0,48.522-25.263,312.062,312.062,0,0,0,74.088-64.44c9.916-11.8,17.216-22.841,22.09-33.129,4.693-10.288,7.13-19.514,7.13-27.684,0-10.437-4.7-19.817-14.264-27.982-9.386-8.32-23.826-15.583-43.128-21.935s-43.3-11.8-72-16.186c-28.7-4.235-62.09-7.413-100.176-9.226-1.046,4.992-2.437,10.133-4,15.428a101.879,101.879,0,0,1-6.44,15.429,116.293,116.293,0,0,1-10.087,16.944,193.36,193.36,0,0,1-13.914,17.546L395.79,413.31q5.478-.68,9.911-.907a31.867,31.867,0,0,0,6.784-.912h9.391c9.391,0,17.737,0,24.866.154a126.154,126.154,0,0,1,17.917,1.664,93.651,93.651,0,0,1,12.693,1.968,65.529,65.529,0,0,1,10.262,3.477,148.076,148.076,0,0,1-19.3,6.656c-7.65,2.271-16.176,4.234-25.567,6.053-9.911,1.814-20.348,3.477-31.475,4.837-11.307,1.515-23.305,2.875-36.349,4.235l-26.087,34.489Z" transform="translate(-22957.629 -9331.963)" fill="#0d3e87" stroke="#000" stroke-width="0.2"/>
    <path id="Trazado_26" data-name="Trazado 26" d="M368.812,523.3Q299.94,586.15,255.418,617.241q-44.6,31.087-66.953,31.007c-13.744,0-30.961-15.125-52-45.379s-31.651-58.541-31.651-84.407c0-18.911,9.041-40.387,26.953-64.136,18.092-23.753,43.133-47.2,75.484-70.189a535.819,535.819,0,0,1,77.39-46.291,683.418,683.418,0,0,1,90.784-36.153,680.353,680.353,0,0,1,65.918-18.607c21.038-4.688,35.478-7.109,43.648-7.109,11.132,0,22.264,5.445,33.392,16.186,10.958,10.741,16.526,20.874,16.526,30.409a9.962,9.962,0,0,1-3.828,7.712c-2.607,2.272-7.48,5.141-14.96,8.623l-18.952,9.829,17.912,31.919a45.226,45.226,0,0,1,4.868,9.685,24.19,24.19,0,0,1,1.216,7.562c0,6.805-13.389,26.927-40,60.5q-39.918,50.15-40,78.055c0,7.109,2.606,12.559,7.825,16.186,5.388,3.781,12.7,5.6,22.259,5.6,14.61,0,32.872-6.352,54.961-19.21q20.971-12.216,53.2-36.8l50.794-42.768c-8.52-4.384-14.955-9.376-18.952-14.671a28.113,28.113,0,0,1-6.089-17.247c0-23.9,16.521-51.278,49.392-81.836q49.562-45.83,82.083-45.833a13.933,13.933,0,0,1,9.221,3.328,10.57,10.57,0,0,1,4,8.17c0,2.117-1.046,5.291-2.957,9.829-2.092,4.389-5.219,9.983-9.216,16.793l86.606-4.843c2.087,0,4.7-.154,8.176-.453,13.218-.912,22.61-1.36,28-1.36,18.437,0,31.831,4.991,40.521,14.82,8.7,9.984,13.049,24.959,13.049,45.081,0,7.258-8.876,18.154-26.437,32.372-10.957,8.165-19.3,14.975-25.041,20.266-19.658,18.308-36,37.369-48.7,57.181s-19.127,35.55-19.127,47.347c0,8.927,2.261,15.583,6.96,20.271,4.518,4.538,11.3,6.805,20.518,6.805,10.262,0,26.958-7.413,49.913-22.388q24.441-15.655,69.849-50.685,5.362-22.131,24.933-48.089c18.092-23.753,43.133-47.2,75.484-70.189a535.808,535.808,0,0,1,77.39-46.291,800.538,800.538,0,0,1,156.7-54.76c21.044-4.688,35.478-7.109,43.648-7.109,11.132,0,22.265,5.445,33.392,16.186,10.958,10.741,16.526,20.874,16.526,30.409a9.963,9.963,0,0,1-3.827,7.712c-2.607,2.272-7.48,5.141-14.96,8.623l-18.952,9.829,17.911,31.919a44.991,44.991,0,0,1,4.868,9.685,24.173,24.173,0,0,1,1.216,7.562c0,6.805-13.389,26.927-40,60.5q-39.918,50.15-40,78.055c0,7.109,2.607,12.559,7.826,16.186,5.388,3.781,12.7,5.6,22.259,5.6,14.61,0,32.872-6.352,54.961-19.21q26.952-15.694,72.455-51.8c2.695-16.135,10.138-31.841,22.326-47.28,15.655-19.818,39.481-39.63,71.832-59.448,34.953-21.631,68.519-38.425,100.345-50.675,32-12.25,57.568-18.453,77.046-18.453,10.087,0,18.787,1.659,25.912,4.837,7.135,3.328,13.744,8.623,19.828,16.037q84.266-125.482,130.441-184.4,46.432-58.773,61.74-58.846c8.871,0,17.041,4.085,24.7,12.4s11.477,17.849,11.477,28.74q0,35.174-136,204.364l-16.35,19.365q-31.048,39.478-53.565,101.046-22.44,61.717-22.44,100.592c0,5.749,2.261,10.741,6.434,15.13s9.046,6.656,14.61,6.656q21.914,0,116.526-72.609l1.807-1.406c3.462-14.991,11.864-31.357,25.15-48.965,18.087-23.754,43.133-47.2,75.479-70.189a535.8,535.8,0,0,1,77.39-46.291,800.88,800.88,0,0,1,156.7-54.76c21.043-4.688,35.478-7.109,43.648-7.109,11.132,0,22.265,5.445,33.392,16.186,10.962,10.741,16.526,20.874,16.526,30.409a9.963,9.963,0,0,1-3.828,7.712c-2.606,2.272-7.48,5.141-14.96,8.623l-18.952,9.829,17.911,31.918a45,45,0,0,1,4.869,9.685,24.209,24.209,0,0,1,1.221,7.562q0,10.208-40,60.5-39.919,50.15-40,78.055c0,7.109,2.606,12.559,7.825,16.186,5.394,3.781,12.7,5.6,22.26,5.6,14.615,0,32.872-6.352,54.96-19.21s53.565-36,94.261-69.436l1.041,39.027q-107.468,101.427-149.562,130.1-42,28.591-71.481,28.586c-16,0-29.394-5.141-40.351-15.578-10.776-10.287-16.345-23.295-16.345-38.878q0-21.327,24.521-87.884l.525-1.664q-68.873,62.845-113.394,93.937-44.609,31.087-66.959,31.007c-13.739,0-30.96-15.125-52-45.379q-19.774-28.436-27.225-54.446Q1764.434,668.21,1715.443,668.215c-17.216,0-29.564-5.291-36.869-16.032q-10.957-15.879-10.958-55.816a401.266,401.266,0,0,1,2.086-41.149,387.565,387.565,0,0,1,6.089-41.294q-75.912,68.749-119.308,100.592c-28.869,21.332-48.522,31.918-59.129,31.918-14.96,0-29.394-14.522-43.483-43.416q-15.756-32.485-19.833-73.177-89.458,83.345-126.953,108.882-42,28.591-71.476,28.586c-16,0-29.394-5.141-40.351-15.578-10.782-10.287-16.346-23.295-16.346-38.878q0-21.327,24.521-87.884l.525-1.664q-68.872,62.845-113.4,93.937-44.6,31.087-66.953,31.007c-13.744,0-30.96-15.125-52-45.379q-20.439-29.38-27.7-56.161-58.7,53.418-98.908,81.573Q791.779,665.5,760.646,665.5c-18.437,0-34.092-6.805-47.131-20.42s-19.653-30.4-19.653-50.525c0-25.413,8-50.825,24.171-76.391s43.653-55.816,82.264-90.609c-24.346,4.992-44.694,8.773-60.519,11.343q-24,3.632-45.395,6.357l-13.739,12.858q-58.193,53.4-88.172,77.7-84.4,78.307-120.529,102.911-42,28.591-71.476,28.586c-16,0-29.394-5.141-40.351-15.578-10.782-10.287-16.346-23.295-16.346-38.878q0-21.327,24.521-87.884l.52-1.664ZM2236.154,365.984q-166.961,62.4-216.525,97.718c-32.872,23.45-49.392,49.613-49.392,78.21,0,7.109,1.736,13.008,5.037,17.7,3.483,4.688,7.656,7.109,12.874,7.109q25.305,0,98.609-57.331,73.044-57.406,149.4-143.4ZM1723.1,389.433q-123.658,39.479-169.916,74.572-46.178,35.4-46.09,85.313,0,7.943,1.566,10.89c1.046,1.968,2.782,2.875,5.568,2.875,9.215,0,25.561-7.562,48.866-22.842,23.48-15.125,56.7-39.934,100.005-74.119,1.216-.907,2.607-1.968,4-3.179,26.783-20.719,45.565-45.23,56-73.511Zm-435.659-23.45q-166.961,62.4-216.526,97.718c-32.871,23.45-49.4,49.613-49.4,78.21,0,7.109,1.741,13.008,5.043,17.7,3.477,4.688,7.655,7.109,12.874,7.109q25.307,0,98.609-57.331Q1211.089,451.979,1287.441,365.984Zm-835.149,0Q285.339,428.381,235.77,463.7c-32.871,23.45-49.4,49.613-49.4,78.21,0,7.109,1.741,13.008,5.043,17.7,3.477,4.688,7.655,7.109,12.868,7.109q25.314,0,98.615-57.331Q375.944,451.979,452.292,365.984Z" transform="translate(-22317.396 -9254.686)" fill="#0d3e87" stroke="#000" stroke-width="0.2"/>
    <g id="Grupo_58" data-name="Grupo 58" transform="translate(-23440.492 -11344)">
      <path id="Trazado_27" data-name="Trazado 27" d="M412.37,513.772q-76.7,68.068-118.957,100.747c-14.61,10.437-26.783,18.3-36.7,23.748-9.912,5.3-17.561,8.016-22.78,8.016q-21.915,0-43.828-43.566a213.034,213.034,0,0,1-15.476-47.043,258.725,258.725,0,0,1-5.394-54.606,92.829,92.829,0,0,1,5.564-31.161,111.8,111.8,0,0,1,17.4-30.558c7.825-9.53,17.737-19.21,29.734-29.193a389.921,389.921,0,0,1,42.263-29.8c17.736-10.89,34.953-20.421,51.654-28.889,16.7-8.324,32.866-15.583,48.516-21.935a390.053,390.053,0,0,1,43.653-13.466c13.044-3.178,24.175-4.688,33.567-4.688a82.38,82.38,0,0,1,14.259,1.211,86.982,86.982,0,0,1,11.827,3.328,48.6,48.6,0,0,1,10.262,6.805,79.426,79.426,0,0,1,9.566,9.53q42.26-62.621,74.954-108.763,32.871-46.286,55.482-75.48,23.475-29.951,38.6-44.478T679.5,89.014a31.122,31.122,0,0,1,13.389,2.874,34.183,34.183,0,0,1,11.652,8.923,62.155,62.155,0,0,1,8.521,13.764,40.811,40.811,0,0,1,2.957,15.279c0,11.8-11.477,34.639-34.087,68.674Q647.753,249.582,580.37,334.063l-16.7,19.972q-31.31,39.479-53.219,100.742a415.274,415.274,0,0,0-17.392,55.816c-3.653,16.793-5.564,31.769-5.564,44.931a19.987,19.987,0,0,0,1.566,7.866,17.35,17.35,0,0,0,4.693,6.65,22.131,22.131,0,0,0,6.96,5.3,15.467,15.467,0,0,0,7.65,1.968c7.3,0,20.694-6.053,40-18.3q29.215-18.152,76.87-54.307,14.087-11.567,25.567-19.967t19.3-14.522v39.028l-6.264,6.351Q585.592,591.83,532.539,629.947q-53.21,38.119-80.517,38.116c-8.871,0-16.176-1.36-22.09-4.08A33.453,33.453,0,0,1,415.5,651.728c-3.653-4.992-6.434-12.25-8.525-21.631a169.4,169.4,0,0,1-2.951-33.732c0-7.264.175-14.373.7-21.178.345-6.96.871-13.764,1.39-20.575A275.605,275.605,0,0,1,412.37,513.772Zm46.955-124.341Q397.5,409.166,355.154,427.7c-28.354,12.25-50.269,24.356-65.918,36.153-15.13,11.8-26.607,24.809-34.257,38.878a94.484,94.484,0,0,0-11.653,46.435,25.286,25.286,0,0,0,.7,6.81,13.363,13.363,0,0,0,1.39,4.08,4.483,4.483,0,0,0,1.917,1.968,5.963,5.963,0,0,0,3.3.757c4.693,0,11.127-1.814,19.478-5.594,8.175-3.632,18.087-9.381,29.564-17.1s25.567-17.7,42.263-30.1q25.043-18.375,57.913-44.323a14.982,14.982,0,0,1,1.736-1.36,10.121,10.121,0,0,1,2.436-1.36,197.263,197.263,0,0,0,33.567-34.036,155.619,155.619,0,0,0,21.738-39.481Z" transform="translate(3802.554 2100.466)" fill="#0d3e87" stroke="#000" stroke-width="0.2"/>
      <path id="Trazado_28" data-name="Trazado 28" d="M223.949,270.248a126.092,126.092,0,0,1-17.386-1.18A74.536,74.536,0,0,1,192.984,266c-4.075-.711-7.063-1.891-8.691-3.308a6.07,6.07,0,0,1-2.715-5.2q0-2.125,39.11-46.775a472.321,472.321,0,0,0,35.581-45.6c10.865-15.357,20.642-30.945,29.606-46.538q12.216-21.258,24.438-25.51c3.26-1.422,9.777-2.6,19.288-3.307,9.778-.711,22.269-.948,37.75-.948a93.548,93.548,0,0,1,14.939.948,49.119,49.119,0,0,1,11.138,3.307,23.4,23.4,0,0,1,7.331,4.487,9.874,9.874,0,0,1,2.447,6.851c0,3.544-1.36,8.031-3.807,13.7a131.157,131.157,0,0,1-12.492,20.317,308.243,308.243,0,0,1-20.641,25.273c-7.872,9.216-16.835,18.664-26.617,28.586l-3.256,4.255c-25.257,24.093-47.26,42.52-66,54.8-18.742,12.523-34.222,18.9-46.441,18.9Z" transform="translate(4425.966 2090.62)" fill="#0d3e87" stroke="#000" stroke-width="0.2"/>
      <path id="Trazado_29" data-name="Trazado 29" d="M504.069,418.265c-20.348,12.709-40,24.207-58.783,34.644-18.958,10.287-37.22,19.359-54.961,27.076S357.46,493.6,344.766,497.53c-12.524,4.085-22.785,6.053-30.61,6.053a76,76,0,0,1-20.172-2.725,79.755,79.755,0,0,1-19.483-8.165,105.972,105.972,0,0,1-19.3-12.858,147.564,147.564,0,0,1-19.3-18.911,281.178,281.178,0,0,1-22.61-28.74,151.545,151.545,0,0,1-14.954-26.623A115.564,115.564,0,0,1,188.94,380.6a104.145,104.145,0,0,1-3.132-24.959c0-14.069,2.957-28.441,8.7-42.963,5.914-14.671,14.779-29.647,26.782-45.075a299.529,299.529,0,0,1,41.567-44.776,410.084,410.084,0,0,1,55.476-41.449,544.562,544.562,0,0,1,64.872-35.4,746.261,746.261,0,0,1,74.954-29.95Q537.984,88.8,577.113,88.8a94.871,94.871,0,0,1,31.3,5.445,82.515,82.515,0,0,1,13.389,6.656,104.793,104.793,0,0,1,11.652,8.778s.175.149.521.453.525.453.525.453c18.262,16.788,31.825,31.012,40.866,42.809,8.871,11.8,13.393,21.178,13.393,27.983a27.17,27.17,0,0,1-2.261,10.89,48.828,48.828,0,0,1-6.088,10.9,74.71,74.71,0,0,1-11.653,12.25c-5.043,4.538-11.3,9.53-18.607,14.975-7.825,5.9-15.65,11.344-23.651,16.335a248.336,248.336,0,0,1-24.345,13.615,147.328,147.328,0,0,1-20,8.928c-5.563,1.968-9.736,2.874-12.348,2.874a9.549,9.549,0,0,1-4.523-1.21,12.972,12.972,0,0,1-3.828-2.421,8.05,8.05,0,0,1-2.261-3.328,10.188,10.188,0,0,1-.866-3.93c0-1.365,1.911-3.787,5.564-7.413a181.032,181.032,0,0,1,16.351-13.466c6.779-5.9,13.213-11.647,19.477-17.093,6.084-5.6,11.827-11.039,17.041-16.49q-71.213,12.935-129.915,33.886-58.695,21.1-104.868,49.619c-30.78,18.6-53.909,37.209-69.566,55.512-15.475,18.452-23.3,36.606-23.3,54.306a31.909,31.909,0,0,0,2.261,12.4,37.5,37.5,0,0,0,6.088,10.283,29.268,29.268,0,0,0,9.216,7.413,23.7,23.7,0,0,0,10.607,2.576c7.31,0,17.221-1.818,29.569-5.6,12.518-3.632,27.3-9.381,44.525-17.092,17.216-7.264,34.952-15.733,53.039-25.263,18.263-9.53,36.694-20.117,55.477-31.918q13.305-8.848,29.74-19.967t36-25.413c17.216-12.25,31.651-21.481,43.128-27.833,11.478-6.2,20-9.381,25.742-9.381a92.738,92.738,0,0,1,19.647,1.968,98.2,98.2,0,0,1,18.957,6.2c5.744,2.725,10.087,5.6,13.219,8.773,2.958,3.029,4.523,6.2,4.523,9.381q0,4.08-6.259,13.615c-2.092,2.72-4.7,6.048-8,10.133-3.133,4.085-7.135,8.923-11.828,14.367L386.152,666.951a306.775,306.775,0,0,1-29.044,30.708,255.8,255.8,0,0,1-31.475,24.655A180.785,180.785,0,0,1,296.939,737.9c-8.7,3.477-16.175,5.29-22.439,5.29a32.555,32.555,0,0,1-6.434-.752,61,61,0,0,1-7.129-1.968,44.5,44.5,0,0,1-8-3.931c-2.607-1.818-5.564-3.781-8.7-6.053l33.392-63.533a74.752,74.752,0,0,1,21.914-27.231,88.946,88.946,0,0,1,14.96-9.376,69.416,69.416,0,0,1,16.346-6.048L504.07,418.264Z" transform="translate(4639.664 2089.781)" fill="#0d3e87" stroke="#000" stroke-width="0.2"/>
    </g>
  </g>
</svg>
