<svg xmlns="http://www.w3.org/2000/svg" width="1757.379" height="1200.724" viewBox="0 0 1757.379 1200.724">
  <g id="logo" transform="translate(-0.111 0.112)">
    <g id="_918942624">
      <path id="_918942288" d="M893.163,1194.914c11.3-13.487,375.644-171.481,184.294-614.945-14.074-32.594-33.809-67.7-52.52-97.8C924.783,321.041,678.6,241.93,497.242,347.695c-61.379,35.8-111.951,88.116-144.6,158.948-38.626,83.788-40.784,160.731-19.874,256.347,19.735,90.233,61.642,141.547,118.926,181.847,60.463,42.536,151.026,70.019,241.454,49.717,72.151-16.2,142.778-62.276,172.018-128.632,61.921-140.506-.685-364.687-185.659-376.9-53.889-3.565-85.509,10.957-113.615,37.92-96.059,92.149-63.574,281.023,49.732,293.314,48.862,5.3,77.792-20.925,81.171-66.222,1.978-26.468-5.306-44.7-19.951-57.011l-64.239-6.47c-30.028-87.807,136.859-86.54,134.922,54.95-.582,42.33-20.6,79.142-53.606,102.313-31.28,21.956-90.233,24.655-127.792,8.176-28.41-12.472-62.034-50.155-78.142-77.792-21.4-36.7-30.584-80.754-26.84-132.1,10.767-147.466,132.532-228.06,259.917-205.765,170.828,29.9,300.124,308.392,154.817,507.223-47.646,65.2-123.78,100.824-207.789,109.453-169.468,17.4-330.606-94.354-379.951-251.994C246.109,670.758,268.07,538.51,341.612,424.57c16.387-25.391,49.063-67.438,72.97-85.725,157.161-120.245,372.059-124.027,530.76-6.759,9.783,7.228,13.677,10.267,22.476,17.262,59.134,46.9,123.547,132.485,153.735,203.673l43.453,115.686c5.553-8.866,50.021-160.741,67.731-206.527l17.788-50.68c3.173-16.954,2.293-4.085-5.836-16.552-16.423-4.92-43.695-44.282-52.6-57.155-15.758-22.769-27.488-45.292-42.546-68.071C986.055,22.463,616.061-21.582,362.9,153.846c-86.426,59.891-159.4,145.106-211.416,236.6C86.955,503.933,70.568,611.985,90.432,762.217c19.452,147.162,66.052,239.286,160.623,340.728,22.321,23.954,65.151,59.211,91.82,75.495,47.7,29.116,96.59,52.261,162.658,61.508,68.339,9.566,141.588,11.4,211.761,2.519,86.122-10.906,167.273-47,175.871-47.554" transform="translate(-82.498 -47.617)" fill="#0d3e87" stroke="#2b2a29" stroke-width="0.008"/>
      <path id="_918923160" d="M779.5,143.429c.876-3.766.881-12.688-2.982-15.49-34.154-22.61-110.287,66.114-130.193,90.862-28.828,35.849-37.776,65.114-80.78,37.714C547.291,244.882,467.422,110.3,452.864,94.135,430,65.318,409.35,47.684,398.614,58.971c-8.325,10.839,5.914,29.925,23.408,57.511,34.1,53.75,72.713,100.541,91.278,166.686,47.234,168.257-111.143,302.947-224.5,193.355C256.2,445,240.211,425.838,225.226,367.281c-36.256-141.7,32.294-260.1-10.664-306.115C203.394,102.176,181.526,155.381,165.1,216.9c-14.29,53.513-27.122,114.538-37.24,169.6-15.877,86.405-31.671,262.848-20.766,359.443.732,6.537,2.535,18.386,7.315,22.739C143.8,781.288,220.5,764.819,251.735,758.5c59.814-20.889,92.417-22.852,149.6-64.414,60.086-43.669,133.8-120.281,168.215-197.569,29.74-66.794,45.312-147.342,80.7-208.5C673.155,248.421,717.69,195.5,750.355,169.7c18.236-14.4,26.587-15.279,29.142-26.267Z" transform="translate(977.471 351.687)" fill="#0d3e87" stroke="#2b2a29" stroke-width="0.008"/>
    </g>
  </g>
</svg>
